<svg width="231" height="417" viewBox="0 0 231 417" fill="none" xmlns="http://www.w3.org/2000/svg">
<path d="M223 154.6C199.3 65.7 118.1 0 21.9 0C14.5 0 7.20001 0.400002 0.100006 1.1V4.9C7.30001 4.1 14.6 3.7 21.9 3.7C113.9 3.7 191.9 64.8 217.5 148.5C223.3 167.4 226.4 187.4 226.4 208.1C226.4 228.8 223.3 248.8 217.5 267.7C191.9 351.4 113.9 412.5 21.9 412.5C14.5 412.5 7.20001 412.1 0.100006 411.3V415.1C7.30001 415.9 14.6 416.2 21.9 416.2C118.1 416.2 199.4 350.5 223.1 261.7C227.7 244.6 230.1 226.6 230.1 208.1C230 189.7 227.6 171.7 223 154.6Z" fill="#EC6500"/>
<path d="M99.3 204.2C99.3 202.6 99.2 201 99.1 199.4C98.9 196.4 98.7 193.3 98.3 190.4C97.1 180.3 95 170.5 92 161.1C77.7 116.2 43.6 80 0 62.9V66.9C42.9 84.1 76.1 120.4 89.4 165.1C93.2 177.8 95.3 191.1 95.6 204.9C95.6 205.6 95.6 206.3 95.6 207C95.6 207.4 95.6 207.8 95.6 208.2C95.6 223.2 93.4 237.6 89.4 251.3C76.2 296 42.9 332.3 0 349.5V353.5C43.6 336.4 77.8 300.3 92 255.3C96.7 240.4 99.3 224.6 99.3 208.2C99.4 206.9 99.4 205.5 99.3 204.2Z" fill="#EC6500"/>
<path d="M153.6 185.1C152.9 179.8 152 174.6 150.8 169.4C147.6 155.2 142.7 141.6 136.4 128.9C110.4 77.1 59.9 39.7 0.100006 32.1V35.9C58.2 43.4 107.4 79.8 132.8 130.1C138.5 141.4 143 153.4 146.2 166C146.5 167.3 146.9 168.7 147.2 170.1C148 173.7 148.7 177.3 149.3 181C149.5 182.5 149.8 184 150 185.4C150.4 188.8 150.8 192.2 151 195.6C151.2 198.1 151.3 200.6 151.4 203.1C151.5 204.8 151.5 206.5 151.5 208.2C151.5 209 151.5 209.7 151.5 210.5C151.5 211.9 151.4 213.2 151.4 214.6C150.5 240.3 143.9 264.6 133 286.4C107.6 336.7 58.4 373.1 0.300003 380.6V384.4C60.1 376.8 110.6 339.4 136.6 287.6C144.1 272.6 149.6 256.3 152.6 239.2C152.7 238.7 152.8 238.1 152.9 237.5C154.1 230.2 154.9 222.7 155.2 215.1C155.2 213.8 155.3 212.4 155.3 211C155.3 210.1 155.3 209.2 155.3 208.2C155.1 200.4 154.6 192.6 153.6 185.1Z" fill="#EC6500"/>
</svg>